<svg xmlns="http://www.w3.org/2000/svg" xmlns:xlink="http://www.w3.org/1999/xlink" width="500" zoomAndPan="magnify" viewBox="0 0 375 374.999991" height="500" preserveAspectRatio="xMidYMid meet" version="1.0"><defs><g/><clipPath id="f7ae78e644"><path d="M 120.359375 77.636719 L 254.609375 77.636719 L 254.609375 187.136719 L 120.359375 187.136719 Z M 120.359375 77.636719 " clip-rule="nonzero"/></clipPath></defs><rect x="-37.5" width="450" fill="#ffffff" y="-37.499999" height="449.999989" fill-opacity="1"/><rect x="-37.5" width="450" fill="#ffffff" y="-37.499999" height="449.999989" fill-opacity="1"/><rect x="-37.5" width="450" fill="#ffffff" y="-37.499999" height="449.999989" fill-opacity="1"/><g clip-path="url(#f7ae78e644)"><path fill="#4d330c" d="M 144.769531 139.5625 L 144.769531 163.898438 L 187.484375 187.132812 L 230.203125 163.898438 L 230.203125 139.5625 L 187.484375 162.800781 Z M 187.484375 77.636719 L 120.359375 114.136719 L 187.484375 150.636719 L 242.40625 120.765625 L 242.40625 162.800781 L 254.609375 162.800781 L 254.609375 114.136719 Z M 187.484375 77.636719 " fill-opacity="1" fill-rule="nonzero"/></g><g fill="#4d330c" fill-opacity="1"><g transform="translate(87.439062, 221.847672)"><g><path d="M 12.359375 -24.8125 C 13.335938 -24.8125 14.257812 -24.617188 15.125 -24.234375 C 15.988281 -23.847656 16.738281 -23.320312 17.375 -22.65625 C 18.019531 -22 18.523438 -21.21875 18.890625 -20.3125 C 19.265625 -19.414062 19.453125 -18.457031 19.453125 -17.4375 C 19.453125 -16.40625 19.265625 -15.4375 18.890625 -14.53125 C 18.523438 -13.632812 18.019531 -12.847656 17.375 -12.171875 C 16.738281 -11.503906 15.988281 -10.976562 15.125 -10.59375 C 14.257812 -10.207031 13.335938 -10.015625 12.359375 -10.015625 L 6.9375 -10.015625 L 6.9375 0 L 1.640625 0 L 1.640625 -24.8125 Z M 11.65625 -14.84375 C 12.332031 -14.84375 12.921875 -15.09375 13.421875 -15.59375 C 13.921875 -16.09375 14.171875 -16.707031 14.171875 -17.4375 C 14.171875 -18.132812 13.921875 -18.734375 13.421875 -19.234375 C 12.921875 -19.734375 12.332031 -19.984375 11.65625 -19.984375 L 6.9375 -19.984375 L 6.9375 -14.84375 Z M 11.65625 -14.84375 "/></g></g></g><g fill="#4d330c" fill-opacity="1"><g transform="translate(107.489575, 221.847672)"><g><path d="M 19.5 -17.4375 C 19.5 -16.632812 19.382812 -15.878906 19.15625 -15.171875 C 18.9375 -14.460938 18.628906 -13.804688 18.234375 -13.203125 C 17.835938 -12.609375 17.359375 -12.082031 16.796875 -11.625 C 16.234375 -11.175781 15.628906 -10.8125 14.984375 -10.53125 L 23.203125 0 L 17.015625 0 L 9.34375 -10.015625 L 6.96875 -10.015625 L 6.96875 0 L 1.640625 0 L 1.640625 -24.8125 L 12.359375 -24.8125 C 13.335938 -24.8125 14.265625 -24.617188 15.140625 -24.234375 C 16.015625 -23.847656 16.769531 -23.320312 17.40625 -22.65625 C 18.050781 -22 18.5625 -21.21875 18.9375 -20.3125 C 19.3125 -19.414062 19.5 -18.457031 19.5 -17.4375 Z M 11.6875 -14.84375 C 12.363281 -14.84375 12.945312 -15.09375 13.4375 -15.59375 C 13.925781 -16.09375 14.171875 -16.707031 14.171875 -17.4375 C 14.171875 -18.132812 13.925781 -18.734375 13.4375 -19.234375 C 12.945312 -19.734375 12.363281 -19.984375 11.6875 -19.984375 L 6.96875 -19.984375 L 6.96875 -14.84375 Z M 11.6875 -14.84375 "/></g></g></g><g fill="#4d330c" fill-opacity="1"><g transform="translate(131.704147, 221.847672)"><g><path d="M 1.6875 -24.8125 L 17.1875 -24.8125 L 17.1875 -19.984375 L 7 -19.984375 L 7 -15.5 L 15.953125 -15.5 L 15.953125 -10.671875 L 7 -10.671875 L 7 -4.796875 L 17.1875 -4.796875 L 17.1875 0 L 1.6875 0 Z M 1.6875 -24.8125 "/></g></g></g><g fill="#4d330c" fill-opacity="1"><g transform="translate(150.739888, 221.847672)"><g><path d="M 0.8125 -24.8125 L 18.765625 -24.8125 L 18.765625 -19.984375 L 12.421875 -19.984375 L 12.421875 0 L 7.140625 0 L 7.140625 -19.984375 L 0.8125 -19.984375 Z M 0.8125 -24.8125 "/></g></g></g><g fill="#4d330c" fill-opacity="1"><g transform="translate(170.475474, 221.847672)"><g><path d="M 13.375 -25.171875 C 15.050781 -25.171875 16.632812 -24.832031 18.125 -24.15625 C 19.625 -23.476562 20.925781 -22.554688 22.03125 -21.390625 C 23.132812 -20.222656 24.007812 -18.867188 24.65625 -17.328125 C 25.300781 -15.785156 25.625 -14.140625 25.625 -12.390625 C 25.625 -10.660156 25.300781 -9.015625 24.65625 -7.453125 C 24.007812 -5.890625 23.132812 -4.523438 22.03125 -3.359375 C 20.925781 -2.191406 19.625 -1.265625 18.125 -0.578125 C 16.632812 0.109375 15.050781 0.453125 13.375 0.453125 C 11.6875 0.453125 10.097656 0.109375 8.609375 -0.578125 C 7.117188 -1.265625 5.820312 -2.191406 4.71875 -3.359375 C 3.625 -4.523438 2.753906 -5.890625 2.109375 -7.453125 C 1.472656 -9.015625 1.15625 -10.660156 1.15625 -12.390625 C 1.15625 -14.140625 1.472656 -15.785156 2.109375 -17.328125 C 2.753906 -18.867188 3.625 -20.222656 4.71875 -21.390625 C 5.820312 -22.554688 7.117188 -23.476562 8.609375 -24.15625 C 10.097656 -24.832031 11.6875 -25.171875 13.375 -25.171875 Z M 13.375 -4.828125 C 14.332031 -4.828125 15.226562 -5.023438 16.0625 -5.421875 C 16.90625 -5.816406 17.640625 -6.359375 18.265625 -7.046875 C 18.898438 -7.734375 19.394531 -8.53125 19.75 -9.4375 C 20.113281 -10.351562 20.296875 -11.335938 20.296875 -12.390625 C 20.296875 -13.441406 20.113281 -14.425781 19.75 -15.34375 C 19.394531 -16.269531 18.898438 -17.078125 18.265625 -17.765625 C 17.640625 -18.453125 16.90625 -18.992188 16.0625 -19.390625 C 15.226562 -19.785156 14.332031 -19.984375 13.375 -19.984375 C 12.414062 -19.984375 11.515625 -19.785156 10.671875 -19.390625 C 9.835938 -18.992188 9.101562 -18.453125 8.46875 -17.765625 C 7.84375 -17.078125 7.347656 -16.269531 6.984375 -15.34375 C 6.617188 -14.425781 6.4375 -13.441406 6.4375 -12.390625 C 6.4375 -11.335938 6.617188 -10.351562 6.984375 -9.4375 C 7.347656 -8.53125 7.84375 -7.734375 8.46875 -7.046875 C 9.101562 -6.359375 9.835938 -5.816406 10.671875 -5.421875 C 11.515625 -5.023438 12.414062 -4.828125 13.375 -4.828125 Z M 13.375 -4.828125 "/></g></g></g><g fill="#4d330c" fill-opacity="1"><g transform="translate(197.419431, 221.847672)"><g><path d="M 19.5 -17.4375 C 19.5 -16.632812 19.382812 -15.878906 19.15625 -15.171875 C 18.9375 -14.460938 18.628906 -13.804688 18.234375 -13.203125 C 17.835938 -12.609375 17.359375 -12.082031 16.796875 -11.625 C 16.234375 -11.175781 15.628906 -10.8125 14.984375 -10.53125 L 23.203125 0 L 17.015625 0 L 9.34375 -10.015625 L 6.96875 -10.015625 L 6.96875 0 L 1.640625 0 L 1.640625 -24.8125 L 12.359375 -24.8125 C 13.335938 -24.8125 14.265625 -24.617188 15.140625 -24.234375 C 16.015625 -23.847656 16.769531 -23.320312 17.40625 -22.65625 C 18.050781 -22 18.5625 -21.21875 18.9375 -20.3125 C 19.3125 -19.414062 19.5 -18.457031 19.5 -17.4375 Z M 11.6875 -14.84375 C 12.363281 -14.84375 12.945312 -15.09375 13.4375 -15.59375 C 13.925781 -16.09375 14.171875 -16.707031 14.171875 -17.4375 C 14.171875 -18.132812 13.925781 -18.734375 13.4375 -19.234375 C 12.945312 -19.734375 12.363281 -19.984375 11.6875 -19.984375 L 6.96875 -19.984375 L 6.96875 -14.84375 Z M 11.6875 -14.84375 "/></g></g></g><g fill="#4d330c" fill-opacity="1"><g transform="translate(221.634006, 221.847672)"><g><path d="M 10.671875 -24.8125 L 10.671875 -20.328125 L 8.8125 -20.328125 L 8.8125 -4.4375 L 10.671875 -4.4375 L 10.671875 0 L 1.640625 0 L 1.640625 -4.4375 L 3.5 -4.4375 L 3.5 -20.328125 L 1.640625 -20.328125 L 1.640625 -24.8125 Z M 10.671875 -24.8125 "/></g></g></g><g fill="#4d330c" fill-opacity="1"><g transform="translate(234.091231, 221.847672)"><g><path d="M 16.90625 -24.8125 L 27.265625 0 L 21.53125 0 L 19.28125 -5.3125 L 8.75 -5.3125 L 6.546875 0 L 0.765625 0 L 11.125 -24.8125 Z M 17.296875 -10.15625 L 14.03125 -17.953125 L 10.78125 -10.15625 Z M 17.296875 -10.15625 "/></g></g></g><g fill="#4d330c" fill-opacity="1"><g transform="translate(262.294907, 221.847672)"><g><path d="M 18.3125 -24.8125 L 23.625 -24.8125 L 23.625 0 L 18.3125 0 L 18.3125 -10.671875 L 6.9375 -10.671875 L 6.9375 0 L 1.640625 0 L 1.640625 -24.8125 L 6.9375 -24.8125 L 6.9375 -15.5 L 18.3125 -15.5 Z M 18.3125 -24.8125 "/></g></g></g></svg>