<svg xmlns="http://www.w3.org/2000/svg" xmlns:xlink="http://www.w3.org/1999/xlink" width="500" zoomAndPan="magnify" viewBox="0 0 375 374.999991" height="500" preserveAspectRatio="xMidYMid meet" version="1.0"><defs><g/><clipPath id="d7d6463ee7"><path d="M 120.359375 77.636719 L 254.609375 77.636719 L 254.609375 187.136719 L 120.359375 187.136719 Z M 120.359375 77.636719 " clip-rule="nonzero"/></clipPath></defs><rect x="-37.5" width="450" fill="#ffffff" y="-37.499999" height="449.999989" fill-opacity="1"/><rect x="-37.5" width="450" fill="#4d330c" y="-37.499999" height="449.999989" fill-opacity="1"/><g clip-path="url(#d7d6463ee7)"><path fill="#ffffff" d="M 144.769531 139.5625 L 144.769531 163.898438 L 187.484375 187.132812 L 230.203125 163.898438 L 230.203125 139.5625 L 187.484375 162.800781 Z M 187.484375 77.636719 L 120.359375 114.136719 L 187.484375 150.636719 L 242.40625 120.765625 L 242.40625 162.800781 L 254.609375 162.800781 L 254.609375 114.136719 Z M 187.484375 77.636719 " fill-opacity="1" fill-rule="nonzero"/></g><g fill="#ffffff" fill-opacity="1"><g transform="translate(106.739841, 221.847701)"><g><path d="M 13.9375 -14.03125 L 23.3125 -14.03125 L 23.3125 -4.9375 C 21.90625 -3.164062 20.347656 -1.820312 18.640625 -0.90625 C 16.941406 0 15.160156 0.453125 13.296875 0.453125 C 11.617188 0.453125 10.03125 0.109375 8.53125 -0.578125 C 7.039062 -1.265625 5.75 -2.191406 4.65625 -3.359375 C 3.5625 -4.523438 2.691406 -5.882812 2.046875 -7.4375 C 1.398438 -8.988281 1.078125 -10.640625 1.078125 -12.390625 C 1.078125 -14.140625 1.398438 -15.785156 2.046875 -17.328125 C 2.691406 -18.867188 3.5625 -20.222656 4.65625 -21.390625 C 5.75 -22.554688 7.039062 -23.476562 8.53125 -24.15625 C 10.03125 -24.832031 11.617188 -25.171875 13.296875 -25.171875 C 14.890625 -25.171875 16.390625 -24.878906 17.796875 -24.296875 C 19.210938 -23.710938 20.582031 -22.742188 21.90625 -21.390625 L 18.828125 -17.640625 C 17.847656 -18.546875 16.925781 -19.15625 16.0625 -19.46875 C 15.195312 -19.789062 14.285156 -19.953125 13.328125 -19.953125 C 12.347656 -19.953125 11.429688 -19.753906 10.578125 -19.359375 C 9.734375 -18.960938 8.992188 -18.425781 8.359375 -17.75 C 7.734375 -17.070312 7.238281 -16.269531 6.875 -15.34375 C 6.507812 -14.425781 6.328125 -13.441406 6.328125 -12.390625 C 6.328125 -11.335938 6.507812 -10.351562 6.875 -9.4375 C 7.238281 -8.53125 7.734375 -7.734375 8.359375 -7.046875 C 8.992188 -6.359375 9.734375 -5.816406 10.578125 -5.421875 C 11.429688 -5.023438 12.347656 -4.828125 13.328125 -4.828125 C 14.191406 -4.828125 15.050781 -4.984375 15.90625 -5.296875 C 16.757812 -5.617188 17.617188 -6.140625 18.484375 -6.859375 L 18.484375 -9.5625 L 13.9375 -9.5625 Z M 13.9375 -14.03125 "/></g></g></g><g fill="#ffffff" fill-opacity="1"><g transform="translate(131.409305, 221.847701)"><g><path d="M 6.328125 -14.9375 C 6.566406 -15.3125 6.835938 -15.664062 7.140625 -16 C 7.441406 -16.34375 7.800781 -16.648438 8.21875 -16.921875 C 8.644531 -17.191406 9.125 -17.40625 9.65625 -17.5625 C 10.195312 -17.726562 10.804688 -17.8125 11.484375 -17.8125 C 12.273438 -17.8125 13.195312 -17.671875 14.25 -17.390625 L 13.796875 -13.09375 C 13.535156 -13.132812 13.273438 -13.191406 13.015625 -13.265625 C 12.804688 -13.304688 12.570312 -13.34375 12.3125 -13.375 C 12.0625 -13.414062 11.832031 -13.4375 11.625 -13.4375 C 10.875 -13.4375 10.175781 -13.332031 9.53125 -13.125 C 8.894531 -12.914062 8.34375 -12.625 7.875 -12.25 C 7.40625 -11.875 7.03125 -11.421875 6.75 -10.890625 C 6.46875 -10.367188 6.328125 -9.804688 6.328125 -9.203125 L 6.328125 0 L 1.5 0 L 1.5 -17.359375 L 5.875 -17.359375 Z M 6.328125 -14.9375 "/></g></g></g><g fill="#ffffff" fill-opacity="1"><g transform="translate(146.001044, 221.847701)"><g><path d="M 19.734375 -17.359375 L 19.734375 0 L 15.578125 0 L 15.078125 -1.859375 C 14.398438 -0.941406 13.585938 -0.332031 12.640625 -0.03125 C 11.703125 0.269531 10.71875 0.421875 9.6875 0.421875 C 8.457031 0.421875 7.320312 0.179688 6.28125 -0.296875 C 5.238281 -0.773438 4.332031 -1.425781 3.5625 -2.25 C 2.800781 -3.082031 2.203125 -4.050781 1.765625 -5.15625 C 1.335938 -6.269531 1.125 -7.457031 1.125 -8.71875 C 1.125 -9.976562 1.335938 -11.160156 1.765625 -12.265625 C 2.203125 -13.378906 2.800781 -14.347656 3.5625 -15.171875 C 4.332031 -16.003906 5.238281 -16.65625 6.28125 -17.125 C 7.320312 -17.601562 8.457031 -17.84375 9.6875 -17.84375 C 10.8125 -17.84375 11.835938 -17.664062 12.765625 -17.3125 C 13.703125 -16.96875 14.472656 -16.410156 15.078125 -15.640625 L 15.578125 -17.359375 Z M 14.90625 -8.640625 C 14.90625 -9.554688 14.78125 -10.320312 14.53125 -10.9375 C 14.289062 -11.550781 13.96875 -12.050781 13.5625 -12.4375 C 13.15625 -12.820312 12.675781 -13.101562 12.125 -13.28125 C 11.582031 -13.457031 10.992188 -13.546875 10.359375 -13.546875 C 9.734375 -13.546875 9.144531 -13.414062 8.59375 -13.15625 C 8.039062 -12.90625 7.554688 -12.5625 7.140625 -12.125 C 6.722656 -11.695312 6.394531 -11.179688 6.15625 -10.578125 C 5.925781 -9.984375 5.8125 -9.363281 5.8125 -8.71875 C 5.8125 -8.039062 5.925781 -7.410156 6.15625 -6.828125 C 6.394531 -6.242188 6.722656 -5.734375 7.140625 -5.296875 C 7.554688 -4.867188 8.039062 -4.523438 8.59375 -4.265625 C 9.144531 -4.015625 9.734375 -3.890625 10.359375 -3.890625 C 11.617188 -3.890625 12.6875 -4.28125 13.5625 -5.0625 C 14.4375 -5.84375 14.882812 -7.035156 14.90625 -8.640625 Z M 14.90625 -8.640625 "/></g></g></g><g fill="#ffffff" fill-opacity="1"><g transform="translate(167.451237, 221.847701)"><g><path d="M 19.078125 -25.546875 L 19.078125 0 L 14.9375 0 L 14.25 -1.5 C 13.707031 -0.945312 12.960938 -0.488281 12.015625 -0.125 C 11.078125 0.238281 10.09375 0.421875 9.0625 0.421875 C 7.820312 0.421875 6.675781 0.179688 5.625 -0.296875 C 4.582031 -0.773438 3.679688 -1.425781 2.921875 -2.25 C 2.160156 -3.082031 1.5625 -4.050781 1.125 -5.15625 C 0.695312 -6.269531 0.484375 -7.457031 0.484375 -8.71875 C 0.484375 -9.976562 0.695312 -11.160156 1.125 -12.265625 C 1.5625 -13.378906 2.160156 -14.347656 2.921875 -15.171875 C 3.679688 -16.003906 4.582031 -16.65625 5.625 -17.125 C 6.675781 -17.601562 7.820312 -17.84375 9.0625 -17.84375 C 10.15625 -17.84375 11.128906 -17.710938 11.984375 -17.453125 C 12.835938 -17.203125 13.59375 -16.773438 14.25 -16.171875 L 14.25 -25.546875 Z M 14.25 -8.640625 C 14.25 -9.554688 14.128906 -10.320312 13.890625 -10.9375 C 13.660156 -11.550781 13.332031 -12.050781 12.90625 -12.4375 C 12.488281 -12.820312 12.003906 -13.101562 11.453125 -13.28125 C 10.910156 -13.457031 10.320312 -13.546875 9.6875 -13.546875 C 9.0625 -13.546875 8.472656 -13.414062 7.921875 -13.15625 C 7.378906 -12.90625 6.898438 -12.5625 6.484375 -12.125 C 6.078125 -11.695312 5.757812 -11.179688 5.53125 -10.578125 C 5.300781 -9.984375 5.1875 -9.363281 5.1875 -8.71875 C 5.1875 -8.039062 5.300781 -7.410156 5.53125 -6.828125 C 5.757812 -6.242188 6.078125 -5.734375 6.484375 -5.296875 C 6.898438 -4.867188 7.378906 -4.523438 7.921875 -4.265625 C 8.472656 -4.015625 9.0625 -3.890625 9.6875 -3.890625 C 10.945312 -3.890625 12.015625 -4.28125 12.890625 -5.0625 C 13.765625 -5.84375 14.21875 -7.035156 14.25 -8.640625 Z M 14.25 -8.640625 "/></g></g></g><g fill="#ffffff" fill-opacity="1"><g transform="translate(188.271574, 221.847701)"><g><path d="M 12.5625 -17.359375 L 17.390625 -17.359375 L 17.390625 0 L 13.265625 0 L 12.5625 -1.328125 C 12 -0.929688 11.363281 -0.609375 10.65625 -0.359375 C 9.945312 -0.117188 9.179688 0 8.359375 0 C 7.734375 0 7.015625 -0.09375 6.203125 -0.28125 C 5.398438 -0.46875 4.648438 -0.816406 3.953125 -1.328125 C 3.253906 -1.835938 2.664062 -2.546875 2.1875 -3.453125 C 1.707031 -4.367188 1.46875 -5.550781 1.46875 -7 L 1.46875 -17.359375 L 6.328125 -17.359375 L 6.328125 -7.171875 C 6.328125 -6.640625 6.414062 -6.1875 6.59375 -5.8125 C 6.769531 -5.4375 7.003906 -5.132812 7.296875 -4.90625 C 7.585938 -4.6875 7.921875 -4.523438 8.296875 -4.421875 C 8.671875 -4.316406 9.054688 -4.265625 9.453125 -4.265625 C 9.753906 -4.265625 10.082031 -4.316406 10.4375 -4.421875 C 10.800781 -4.523438 11.140625 -4.691406 11.453125 -4.921875 C 11.773438 -5.160156 12.039062 -5.46875 12.25 -5.84375 C 12.457031 -6.21875 12.5625 -6.660156 12.5625 -7.171875 Z M 12.5625 -17.359375 "/></g></g></g><g fill="#ffffff" fill-opacity="1"><g transform="translate(207.447282, 221.847701)"><g><path d="M 10.15625 -17.84375 C 11.457031 -17.84375 12.644531 -17.582031 13.71875 -17.0625 C 14.789062 -16.539062 15.710938 -15.851562 16.484375 -15 C 17.253906 -14.144531 17.847656 -13.160156 18.265625 -12.046875 C 18.691406 -10.941406 18.90625 -9.804688 18.90625 -8.640625 C 18.90625 -7.941406 18.8125 -7.195312 18.625 -6.40625 L 6.234375 -6.40625 C 6.703125 -5.613281 7.363281 -4.941406 8.21875 -4.390625 C 9.082031 -3.835938 10.019531 -3.5625 11.03125 -3.5625 C 12.03125 -3.5625 12.910156 -3.644531 13.671875 -3.8125 C 14.429688 -3.976562 15.144531 -4.1875 15.8125 -4.4375 L 17.4375 -1.46875 C 16.570312 -0.863281 15.582031 -0.394531 14.46875 -0.0625 C 13.363281 0.257812 12.179688 0.421875 10.921875 0.421875 C 9.546875 0.421875 8.257812 0.179688 7.0625 -0.296875 C 5.875 -0.773438 4.835938 -1.421875 3.953125 -2.234375 C 3.066406 -3.054688 2.363281 -4.023438 1.84375 -5.140625 C 1.332031 -6.265625 1.078125 -7.457031 1.078125 -8.71875 C 1.078125 -9.945312 1.3125 -11.113281 1.78125 -12.21875 C 2.25 -13.332031 2.894531 -14.300781 3.71875 -15.125 C 4.550781 -15.957031 5.515625 -16.617188 6.609375 -17.109375 C 7.710938 -17.597656 8.894531 -17.84375 10.15625 -17.84375 Z M 14.109375 -10.15625 C 13.828125 -11.15625 13.320312 -11.96875 12.59375 -12.59375 C 11.875 -13.226562 11.0625 -13.546875 10.15625 -13.546875 C 9.21875 -13.546875 8.367188 -13.226562 7.609375 -12.59375 C 6.847656 -11.96875 6.332031 -11.15625 6.0625 -10.15625 Z M 14.109375 -10.15625 "/></g></g></g><g fill="#ffffff" fill-opacity="1"><g transform="translate(228.442577, 221.847701)"><g><path d="M 19.078125 -25.546875 L 19.078125 0 L 14.9375 0 L 14.25 -1.5 C 13.707031 -0.945312 12.960938 -0.488281 12.015625 -0.125 C 11.078125 0.238281 10.09375 0.421875 9.0625 0.421875 C 7.820312 0.421875 6.675781 0.179688 5.625 -0.296875 C 4.582031 -0.773438 3.679688 -1.425781 2.921875 -2.25 C 2.160156 -3.082031 1.5625 -4.050781 1.125 -5.15625 C 0.695312 -6.269531 0.484375 -7.457031 0.484375 -8.71875 C 0.484375 -9.976562 0.695312 -11.160156 1.125 -12.265625 C 1.5625 -13.378906 2.160156 -14.347656 2.921875 -15.171875 C 3.679688 -16.003906 4.582031 -16.65625 5.625 -17.125 C 6.675781 -17.601562 7.820312 -17.84375 9.0625 -17.84375 C 10.15625 -17.84375 11.128906 -17.710938 11.984375 -17.453125 C 12.835938 -17.203125 13.59375 -16.773438 14.25 -16.171875 L 14.25 -25.546875 Z M 14.25 -8.640625 C 14.25 -9.554688 14.128906 -10.320312 13.890625 -10.9375 C 13.660156 -11.550781 13.332031 -12.050781 12.90625 -12.4375 C 12.488281 -12.820312 12.003906 -13.101562 11.453125 -13.28125 C 10.910156 -13.457031 10.320312 -13.546875 9.6875 -13.546875 C 9.0625 -13.546875 8.472656 -13.414062 7.921875 -13.15625 C 7.378906 -12.90625 6.898438 -12.5625 6.484375 -12.125 C 6.078125 -11.695312 5.757812 -11.179688 5.53125 -10.578125 C 5.300781 -9.984375 5.1875 -9.363281 5.1875 -8.71875 C 5.1875 -8.039062 5.300781 -7.410156 5.53125 -6.828125 C 5.757812 -6.242188 6.078125 -5.734375 6.484375 -5.296875 C 6.898438 -4.867188 7.378906 -4.523438 7.921875 -4.265625 C 8.472656 -4.015625 9.0625 -3.890625 9.6875 -3.890625 C 10.945312 -3.890625 12.015625 -4.28125 12.890625 -5.0625 C 13.765625 -5.84375 14.21875 -7.035156 14.25 -8.640625 Z M 14.25 -8.640625 "/></g></g></g><g fill="#ffffff" fill-opacity="1"><g transform="translate(249.262915, 221.847701)"><g><path d="M 12.5625 -17.359375 L 17.390625 -17.359375 L 17.390625 0 L 13.265625 0 L 12.5625 -1.328125 C 12 -0.929688 11.363281 -0.609375 10.65625 -0.359375 C 9.945312 -0.117188 9.179688 0 8.359375 0 C 7.734375 0 7.015625 -0.09375 6.203125 -0.28125 C 5.398438 -0.46875 4.648438 -0.816406 3.953125 -1.328125 C 3.253906 -1.835938 2.664062 -2.546875 2.1875 -3.453125 C 1.707031 -4.367188 1.46875 -5.550781 1.46875 -7 L 1.46875 -17.359375 L 6.328125 -17.359375 L 6.328125 -7.171875 C 6.328125 -6.640625 6.414062 -6.1875 6.59375 -5.8125 C 6.769531 -5.4375 7.003906 -5.132812 7.296875 -4.90625 C 7.585938 -4.6875 7.921875 -4.523438 8.296875 -4.421875 C 8.671875 -4.316406 9.054688 -4.265625 9.453125 -4.265625 C 9.753906 -4.265625 10.082031 -4.316406 10.4375 -4.421875 C 10.800781 -4.523438 11.140625 -4.691406 11.453125 -4.921875 C 11.773438 -5.160156 12.039062 -5.46875 12.25 -5.84375 C 12.457031 -6.21875 12.5625 -6.660156 12.5625 -7.171875 Z M 12.5625 -17.359375 "/></g></g></g><g fill="#ffffff" fill-opacity="1"><g transform="translate(133.731607, 244.047639)"><g><path d="M 2.171875 0 L 1.125 0 L 1.125 -9.875 L 2.171875 -9.875 Z M 2.171875 0 "/></g></g></g><g fill="#ffffff" fill-opacity="1"><g transform="translate(138.864734, 244.047639)"><g><path d="M 4.0625 0.125 C 3.03125 0.125 2.21875 -0.1875 1.625 -0.8125 C 1.03125 -1.4375 0.734375 -2.304688 0.734375 -3.421875 C 0.734375 -4.546875 1.007812 -5.4375 1.5625 -6.09375 C 2.113281 -6.75 2.851562 -7.078125 3.78125 -7.078125 C 4.65625 -7.078125 5.34375 -6.789062 5.84375 -6.21875 C 6.351562 -5.644531 6.609375 -4.890625 6.609375 -3.953125 L 6.609375 -3.28125 L 1.828125 -3.28125 C 1.847656 -2.46875 2.050781 -1.847656 2.4375 -1.421875 C 2.832031 -1.003906 3.382812 -0.796875 4.09375 -0.796875 C 4.84375 -0.796875 5.582031 -0.953125 6.3125 -1.265625 L 6.3125 -0.328125 C 5.9375 -0.160156 5.582031 -0.046875 5.25 0.015625 C 4.925781 0.0859375 4.53125 0.125 4.0625 0.125 Z M 3.765625 -6.203125 C 3.210938 -6.203125 2.769531 -6.019531 2.4375 -5.65625 C 2.101562 -5.289062 1.90625 -4.785156 1.84375 -4.140625 L 5.484375 -4.140625 C 5.484375 -4.804688 5.332031 -5.316406 5.03125 -5.671875 C 4.738281 -6.023438 4.316406 -6.203125 3.765625 -6.203125 Z M 3.765625 -6.203125 "/></g></g></g><g fill="#ffffff" fill-opacity="1"><g transform="translate(148.002033, 244.047639)"><g><path d="M 5.390625 0 L 5.1875 -0.984375 L 5.140625 -0.984375 C 4.785156 -0.554688 4.4375 -0.265625 4.09375 -0.109375 C 3.75 0.046875 3.320312 0.125 2.8125 0.125 C 2.113281 0.125 1.566406 -0.0507812 1.171875 -0.40625 C 0.785156 -0.757812 0.59375 -1.265625 0.59375 -1.921875 C 0.59375 -3.328125 1.71875 -4.0625 3.96875 -4.125 L 5.140625 -4.171875 L 5.140625 -4.609375 C 5.140625 -5.148438 5.019531 -5.550781 4.78125 -5.8125 C 4.550781 -6.070312 4.179688 -6.203125 3.671875 -6.203125 C 3.085938 -6.203125 2.429688 -6.023438 1.703125 -5.671875 L 1.375 -6.46875 C 1.71875 -6.65625 2.09375 -6.800781 2.5 -6.90625 C 2.90625 -7.019531 3.316406 -7.078125 3.734375 -7.078125 C 4.566406 -7.078125 5.179688 -6.890625 5.578125 -6.515625 C 5.972656 -6.148438 6.171875 -5.5625 6.171875 -4.75 L 6.171875 0 Z M 3.015625 -0.75 C 3.671875 -0.75 4.1875 -0.925781 4.5625 -1.28125 C 4.9375 -1.644531 5.125 -2.148438 5.125 -2.796875 L 5.125 -3.421875 L 4.0625 -3.375 C 3.226562 -3.34375 2.625 -3.210938 2.25 -2.984375 C 1.882812 -2.753906 1.703125 -2.394531 1.703125 -1.90625 C 1.703125 -1.53125 1.816406 -1.242188 2.046875 -1.046875 C 2.273438 -0.847656 2.597656 -0.75 3.015625 -0.75 Z M 3.015625 -0.75 "/></g></g></g><g fill="#ffffff" fill-opacity="1"><g transform="translate(157.075874, 244.047639)"><g><path d="M 4.296875 -7.078125 C 4.597656 -7.078125 4.875 -7.054688 5.125 -7.015625 L 4.984375 -6.03125 C 4.691406 -6.09375 4.4375 -6.125 4.21875 -6.125 C 3.65625 -6.125 3.171875 -5.894531 2.765625 -5.4375 C 2.367188 -4.976562 2.171875 -4.410156 2.171875 -3.734375 L 2.171875 0 L 1.125 0 L 1.125 -6.953125 L 1.984375 -6.953125 L 2.109375 -5.671875 L 2.15625 -5.671875 C 2.414062 -6.117188 2.726562 -6.460938 3.09375 -6.703125 C 3.457031 -6.953125 3.859375 -7.078125 4.296875 -7.078125 Z M 4.296875 -7.078125 "/></g></g></g><g fill="#ffffff" fill-opacity="1"><g transform="translate(164.226949, 244.047639)"><g><path d="M 5.875 0 L 5.875 -4.5 C 5.875 -5.0625 5.742188 -5.484375 5.484375 -5.765625 C 5.234375 -6.046875 4.832031 -6.1875 4.28125 -6.1875 C 3.550781 -6.1875 3.015625 -5.988281 2.671875 -5.59375 C 2.335938 -5.207031 2.171875 -4.5625 2.171875 -3.65625 L 2.171875 0 L 1.125 0 L 1.125 -6.953125 L 1.96875 -6.953125 L 2.140625 -6 L 2.203125 -6 C 2.410156 -6.34375 2.707031 -6.609375 3.09375 -6.796875 C 3.488281 -6.984375 3.925781 -7.078125 4.40625 -7.078125 C 5.238281 -7.078125 5.867188 -6.875 6.296875 -6.46875 C 6.722656 -6.070312 6.9375 -5.425781 6.9375 -4.53125 L 6.9375 0 Z M 5.875 0 "/></g></g></g><g fill="#ffffff" fill-opacity="1"><g transform="translate(174.049589, 244.047639)"><g/></g></g><g fill="#ffffff" fill-opacity="1"><g transform="translate(179.271557, 244.047639)"><g><path d="M 3.359375 -0.75 C 3.546875 -0.75 3.726562 -0.757812 3.90625 -0.78125 C 4.082031 -0.8125 4.21875 -0.84375 4.3125 -0.875 L 4.3125 -0.0625 C 4.195312 -0.0078125 4.03125 0.03125 3.8125 0.0625 C 3.59375 0.101562 3.394531 0.125 3.21875 0.125 C 1.863281 0.125 1.1875 -0.582031 1.1875 -2 L 1.1875 -6.140625 L 0.203125 -6.140625 L 0.203125 -6.640625 L 1.1875 -7.078125 L 1.640625 -8.5625 L 2.25 -8.5625 L 2.25 -6.953125 L 4.265625 -6.953125 L 4.265625 -6.140625 L 2.25 -6.140625 L 2.25 -2.046875 C 2.25 -1.628906 2.347656 -1.304688 2.546875 -1.078125 C 2.742188 -0.859375 3.015625 -0.75 3.359375 -0.75 Z M 3.359375 -0.75 "/></g></g></g><g fill="#ffffff" fill-opacity="1"><g transform="translate(185.705565, 244.047639)"><g><path d="M 7.125 -3.484375 C 7.125 -2.347656 6.835938 -1.460938 6.265625 -0.828125 C 5.691406 -0.191406 4.898438 0.125 3.890625 0.125 C 3.273438 0.125 2.722656 -0.0195312 2.234375 -0.3125 C 1.753906 -0.601562 1.382812 -1.019531 1.125 -1.5625 C 0.863281 -2.113281 0.734375 -2.753906 0.734375 -3.484375 C 0.734375 -4.617188 1.015625 -5.5 1.578125 -6.125 C 2.148438 -6.757812 2.9375 -7.078125 3.9375 -7.078125 C 4.914062 -7.078125 5.691406 -6.753906 6.265625 -6.109375 C 6.835938 -5.460938 7.125 -4.585938 7.125 -3.484375 Z M 1.828125 -3.484375 C 1.828125 -2.597656 2.003906 -1.921875 2.359375 -1.453125 C 2.710938 -0.984375 3.234375 -0.75 3.921875 -0.75 C 4.609375 -0.75 5.128906 -0.976562 5.484375 -1.4375 C 5.847656 -1.90625 6.03125 -2.585938 6.03125 -3.484375 C 6.03125 -4.367188 5.847656 -5.039062 5.484375 -5.5 C 5.128906 -5.957031 4.601562 -6.1875 3.90625 -6.1875 C 3.21875 -6.1875 2.695312 -5.957031 2.34375 -5.5 C 2 -5.050781 1.828125 -4.378906 1.828125 -3.484375 Z M 1.828125 -3.484375 "/></g></g></g><g fill="#ffffff" fill-opacity="1"><g transform="translate(195.401291, 244.047639)"><g/></g></g><g fill="#ffffff" fill-opacity="1"><g transform="translate(200.623258, 244.047639)"><g><path d="M 3.359375 -0.75 C 3.546875 -0.75 3.726562 -0.757812 3.90625 -0.78125 C 4.082031 -0.8125 4.21875 -0.84375 4.3125 -0.875 L 4.3125 -0.0625 C 4.195312 -0.0078125 4.03125 0.03125 3.8125 0.0625 C 3.59375 0.101562 3.394531 0.125 3.21875 0.125 C 1.863281 0.125 1.1875 -0.582031 1.1875 -2 L 1.1875 -6.140625 L 0.203125 -6.140625 L 0.203125 -6.640625 L 1.1875 -7.078125 L 1.640625 -8.5625 L 2.25 -8.5625 L 2.25 -6.953125 L 4.265625 -6.953125 L 4.265625 -6.140625 L 2.25 -6.140625 L 2.25 -2.046875 C 2.25 -1.628906 2.347656 -1.304688 2.546875 -1.078125 C 2.742188 -0.859375 3.015625 -0.75 3.359375 -0.75 Z M 3.359375 -0.75 "/></g></g></g><g fill="#ffffff" fill-opacity="1"><g transform="translate(207.057269, 244.047639)"><g><path d="M 4.0625 0.125 C 3.03125 0.125 2.21875 -0.1875 1.625 -0.8125 C 1.03125 -1.4375 0.734375 -2.304688 0.734375 -3.421875 C 0.734375 -4.546875 1.007812 -5.4375 1.5625 -6.09375 C 2.113281 -6.75 2.851562 -7.078125 3.78125 -7.078125 C 4.65625 -7.078125 5.34375 -6.789062 5.84375 -6.21875 C 6.351562 -5.644531 6.609375 -4.890625 6.609375 -3.953125 L 6.609375 -3.28125 L 1.828125 -3.28125 C 1.847656 -2.46875 2.050781 -1.847656 2.4375 -1.421875 C 2.832031 -1.003906 3.382812 -0.796875 4.09375 -0.796875 C 4.84375 -0.796875 5.582031 -0.953125 6.3125 -1.265625 L 6.3125 -0.328125 C 5.9375 -0.160156 5.582031 -0.046875 5.25 0.015625 C 4.925781 0.0859375 4.53125 0.125 4.0625 0.125 Z M 3.765625 -6.203125 C 3.210938 -6.203125 2.769531 -6.019531 2.4375 -5.65625 C 2.101562 -5.289062 1.90625 -4.785156 1.84375 -4.140625 L 5.484375 -4.140625 C 5.484375 -4.804688 5.332031 -5.316406 5.03125 -5.671875 C 4.738281 -6.023438 4.316406 -6.203125 3.765625 -6.203125 Z M 3.765625 -6.203125 "/></g></g></g><g fill="#ffffff" fill-opacity="1"><g transform="translate(216.194569, 244.047639)"><g><path d="M 5.390625 0 L 5.1875 -0.984375 L 5.140625 -0.984375 C 4.785156 -0.554688 4.4375 -0.265625 4.09375 -0.109375 C 3.75 0.046875 3.320312 0.125 2.8125 0.125 C 2.113281 0.125 1.566406 -0.0507812 1.171875 -0.40625 C 0.785156 -0.757812 0.59375 -1.265625 0.59375 -1.921875 C 0.59375 -3.328125 1.71875 -4.0625 3.96875 -4.125 L 5.140625 -4.171875 L 5.140625 -4.609375 C 5.140625 -5.148438 5.019531 -5.550781 4.78125 -5.8125 C 4.550781 -6.070312 4.179688 -6.203125 3.671875 -6.203125 C 3.085938 -6.203125 2.429688 -6.023438 1.703125 -5.671875 L 1.375 -6.46875 C 1.71875 -6.65625 2.09375 -6.800781 2.5 -6.90625 C 2.90625 -7.019531 3.316406 -7.078125 3.734375 -7.078125 C 4.566406 -7.078125 5.179688 -6.890625 5.578125 -6.515625 C 5.972656 -6.148438 6.171875 -5.5625 6.171875 -4.75 L 6.171875 0 Z M 3.015625 -0.75 C 3.671875 -0.75 4.1875 -0.925781 4.5625 -1.28125 C 4.9375 -1.644531 5.125 -2.148438 5.125 -2.796875 L 5.125 -3.421875 L 4.0625 -3.375 C 3.226562 -3.34375 2.625 -3.210938 2.25 -2.984375 C 1.882812 -2.753906 1.703125 -2.394531 1.703125 -1.90625 C 1.703125 -1.53125 1.816406 -1.242188 2.046875 -1.046875 C 2.273438 -0.847656 2.597656 -0.75 3.015625 -0.75 Z M 3.015625 -0.75 "/></g></g></g><g fill="#ffffff" fill-opacity="1"><g transform="translate(225.268411, 244.047639)"><g><path d="M 3.890625 0.125 C 2.890625 0.125 2.113281 -0.179688 1.5625 -0.796875 C 1.007812 -1.421875 0.734375 -2.300781 0.734375 -3.4375 C 0.734375 -4.601562 1.007812 -5.5 1.5625 -6.125 C 2.125 -6.757812 2.925781 -7.078125 3.96875 -7.078125 C 4.300781 -7.078125 4.632812 -7.039062 4.96875 -6.96875 C 5.300781 -6.90625 5.5625 -6.820312 5.75 -6.71875 L 5.4375 -5.828125 C 5.195312 -5.921875 4.941406 -6 4.671875 -6.0625 C 4.398438 -6.125 4.15625 -6.15625 3.9375 -6.15625 C 2.53125 -6.15625 1.828125 -5.253906 1.828125 -3.453125 C 1.828125 -2.597656 2 -1.941406 2.34375 -1.484375 C 2.6875 -1.023438 3.195312 -0.796875 3.875 -0.796875 C 4.445312 -0.796875 5.039062 -0.921875 5.65625 -1.171875 L 5.65625 -0.234375 C 5.1875 0.00390625 4.597656 0.125 3.890625 0.125 Z M 3.890625 0.125 "/></g></g></g><g fill="#ffffff" fill-opacity="1"><g transform="translate(233.301551, 244.047639)"><g><path d="M 5.875 0 L 5.875 -4.5 C 5.875 -5.0625 5.742188 -5.484375 5.484375 -5.765625 C 5.234375 -6.046875 4.832031 -6.1875 4.28125 -6.1875 C 3.550781 -6.1875 3.015625 -5.988281 2.671875 -5.59375 C 2.335938 -5.195312 2.171875 -4.546875 2.171875 -3.640625 L 2.171875 0 L 1.125 0 L 1.125 -9.875 L 2.171875 -9.875 L 2.171875 -6.890625 C 2.171875 -6.523438 2.15625 -6.226562 2.125 -6 L 2.1875 -6 C 2.394531 -6.332031 2.6875 -6.59375 3.0625 -6.78125 C 3.445312 -6.976562 3.882812 -7.078125 4.375 -7.078125 C 5.226562 -7.078125 5.867188 -6.875 6.296875 -6.46875 C 6.722656 -6.0625 6.9375 -5.414062 6.9375 -4.53125 L 6.9375 0 Z M 5.875 0 "/></g></g></g></svg>